<?xml version="1.0" encoding="utf-8"?>
<!-- Generator: Adobe Illustrator 27.2.0, SVG Export Plug-In . SVG Version: 6.00 Build 0)  -->
<svg version="1.1" id="Ebene_1" xmlns:svgjs="http://svgjs.dev/svgjs"
	 xmlns="http://www.w3.org/2000/svg" xmlns:xlink="http://www.w3.org/1999/xlink" x="0px" y="0px" viewBox="0 0 1000 623"
	 style="enable-background:new 0 0 1000 623;" xml:space="preserve">
<style type="text/css">
	.st0{fill:#0063DB;}
	.st1{display:none;fill:none;}
</style>
<g transform="matrix(1,0,0,1,-0.6060606060606233,86.19420983110456)">
	<g id="tight-bounds" transform="matrix(1,0,0,1,0.2400000000000091,-0.09999999999999432)">
		<g>
			<g transform="matrix(1,0,0,1,75.54432000000001,89.54847358749464)">
				<g>
					<g>
						<g>
							<g>
								<g>
									<g transform="matrix(1,0,0,1,0,0)">
										<path id="text-0" class="st0" d="M199.8,147.3l-11-24.5h-51.1l-11,24.5h-10.1l42-91.8h9.6l42,91.8H199.8z M141.2,114.9
											h44.1l-22-49.3L141.2,114.9z M298.6,147.3H288l-21-29.5c-2.4,0.3-4.8,0.4-7.3,0.4l0,0H235v29.1h-9.7V55.5h34.4
											c11.7,0,20.9,2.8,27.5,8.4s10,13.3,10,23.1l0,0c0,7.2-1.8,13.2-5.5,18.2c-3.6,4.9-8.8,8.5-15.5,10.7l0,0L298.6,147.3z
											 M259.4,109.9c9.1,0,16-2,20.8-6c4.8-4,7.2-9.7,7.2-16.9l0,0c0-7.4-2.4-13.1-7.2-17.1c-4.8-4-11.8-6-20.8-6l0,0H235v46
											H259.4z M441.7,55.5h8v91.8h-9.3V73.8l-36.1,61.8h-4.6l-36.1-61.4v73h-9.3V55.5h8l39.9,68.1L441.7,55.5z M537.8,112.8
											l-0.1,2.9H480c0.5,7.2,3.3,13,8.3,17.4c5,4.4,11.3,6.6,18.9,6.6l0,0c4.3,0,8.2-0.8,11.8-2.3c3.6-1.5,6.7-3.8,9.3-6.7l0,0
											l5.2,6c-3.1,3.7-6.9,6.5-11.5,8.4c-4.6,1.9-9.7,2.9-15.2,2.9l0,0c-7.1,0-13.3-1.5-18.8-4.5c-5.5-3-9.7-7.2-12.8-12.5
											c-3.1-5.3-4.6-11.4-4.6-18.1l0,0c0-6.7,1.5-12.8,4.4-18.1c2.9-5.3,7-9.5,12.1-12.5c5.1-3,10.9-4.5,17.3-4.5l0,0
											c6.4,0,12.1,1.5,17.2,4.5c5.1,3,9,7.1,11.9,12.4C536.4,99.9,537.8,106,537.8,112.8L537.8,112.8z M504.4,85.8
											c-6.6,0-12.2,2.1-16.7,6.3c-4.5,4.2-7.1,9.8-7.7,16.6l0,0h48.9c-0.6-6.8-3.2-12.4-7.7-16.6
											C516.8,87.9,511.1,85.8,504.4,85.8L504.4,85.8z M610.5,50h9.3v97.3h-8.9v-13.6c-2.8,4.6-6.5,8.2-11.1,10.6
											c-4.6,2.4-9.8,3.7-15.5,3.7l0,0c-6.5,0-12.3-1.5-17.6-4.5s-9.4-7.1-12.3-12.5s-4.5-11.4-4.5-18.2l0,0
											c0-6.8,1.5-12.9,4.5-18.2c3-5.3,7.1-9.5,12.3-12.4c5.2-2.9,11.1-4.4,17.6-4.4l0,0c5.6,0,10.6,1.2,15.1,3.5
											c4.5,2.3,8.2,5.7,11.1,10.2l0,0V50z M585,139.7c4.8,0,9.2-1.1,13-3.3c3.9-2.2,7-5.4,9.2-9.5c2.2-4.1,3.4-8.8,3.4-14l0,0
											c0-5.2-1.1-9.9-3.4-14c-2.2-4.1-5.3-7.3-9.2-9.5c-3.9-2.2-8.2-3.3-13-3.3l0,0c-4.9,0-9.3,1.1-13.2,3.3
											c-3.9,2.2-6.9,5.4-9.2,9.5c-2.2,4.1-3.3,8.8-3.3,14l0,0c0,5.2,1.1,9.9,3.3,14c2.2,4.1,5.3,7.3,9.2,9.5
											C575.8,138.5,580.2,139.7,585,139.7L585,139.7z M645.8,147.3v-69h9.3v69H645.8z M650.5,63.2c-1.9,0-3.5-0.7-4.9-2
											c-1.3-1.3-2-2.9-2-4.7l0,0c0-1.7,0.7-3.3,2-4.6c1.3-1.3,2.9-2,4.9-2l0,0c1.9,0,3.5,0.6,4.9,1.9c1.3,1.3,2,2.8,2,4.5l0,0
											c0,1.9-0.7,3.5-2,4.9C654,62.6,652.4,63.2,650.5,63.2L650.5,63.2z M705.1,77.8c9,0,15.9,2.2,20.7,6.7
											c4.8,4.5,7.2,11.2,7.2,20l0,0v42.7h-8.9v-10.8c-2.1,3.6-5.2,6.4-9.2,8.4c-4.1,2-8.9,3-14.5,3l0,0
											c-7.7,0-13.8-1.8-18.4-5.5c-4.5-3.7-6.8-8.5-6.8-14.6l0,0c0-5.9,2.1-10.6,6.4-14.2c4.2-3.6,11-5.4,20.2-5.4l0,0h21.9v-4.2
											c0-5.9-1.7-10.5-5-13.6c-3.3-3.1-8.2-4.6-14.6-4.6l0,0c-4.4,0-8.6,0.7-12.6,2.2c-4,1.5-7.5,3.4-10.4,6l0,0l-4.2-6.9
											c3.5-3,7.7-5.3,12.6-6.9C694.6,78.6,699.7,77.8,705.1,77.8L705.1,77.8z M701.8,140.6c5.2,0,9.7-1.2,13.5-3.6
											c3.8-2.4,6.6-5.9,8.4-10.4l0,0v-11.3h-21.6c-11.8,0-17.7,4.1-17.7,12.3l0,0c0,4,1.5,7.2,4.6,9.5
											C692.1,139.4,696.3,140.6,701.8,140.6L701.8,140.6z"/>
									</g>
								</g>
								<g transform="matrix(1,0,0,1,0,47.99987156407697)">
									<g transform="matrix(1,0,0,1,0,0)">
										<path id="text-1" class="st0" d="M120.9,153.1v19.8h-4.3v-35.5h4.3v6c2-4.3,5.3-6.4,9.9-6.4l0,0c0.3,0,0.9,0,1.8,0.1l0,0
											v4.3c-0.9-0.3-1.9-0.4-2.8-0.4l0,0c-2.5,0-4.6,1.2-6.3,3.7C121.7,147.3,120.9,150,120.9,153.1L120.9,153.1z M164,166.8
											v4.3c-2.8,1.4-6.1,2.1-9.8,2.1l0,0c-5.3,0-9.6-1.6-12.9-4.9c-3.3-3.3-4.9-7.6-4.9-13l0,0c0-5.7,1.4-10.2,4.3-13.4
											c2.9-3.3,6.7-4.9,11.3-4.9l0,0c4.3,0,7.8,1.4,10.4,4.3c2.6,2.8,3.9,6.9,3.9,12l0,0c0,1.6-0.1,2.8-0.3,3.8l0,0h-25.1
											c0.3,3.9,1.7,6.9,4.1,9c2.4,2.1,5.5,3.1,9.5,3.1l0,0C158.4,169.2,161.6,168.4,164,166.8L164,166.8z M151.9,141L151.9,141
											c-3,0-5.5,1.1-7.5,3.2s-3.2,5.1-3.5,9l0,0h20.9v-1.6c0-3.2-0.9-5.8-2.7-7.7C157.3,141.9,154.9,141,151.9,141z
											 M179.5,123.4v49.5h-4.3v-49.5H179.5z M195,137.4v35.5h-4.3v-35.5H195z M194.9,123.9c0.6,0.6,0.9,1.3,0.9,2.1
											s-0.3,1.5-0.9,2.1c-0.6,0.6-1.3,0.8-2.1,0.8s-1.5-0.3-2.1-0.8c-0.6-0.6-0.8-1.3-0.8-2.1s0.3-1.6,0.8-2.1
											c0.6-0.6,1.3-0.9,2.1-0.9S194.3,123.3,194.9,123.9z M216.2,169.3L216.2,169.3c2.8,0,5-0.8,6.7-2.3
											c1.7-1.5,2.5-3.5,2.5-5.9l0,0V156h-6.9c-3.3,0-5.8,0.6-7.4,1.9c-1.6,1.3-2.5,2.9-2.5,4.8l0,0c0,2,0.6,3.5,1.9,4.8
											C211.8,168.7,213.7,169.3,216.2,169.3z M225.4,172.9v-4.1c-2,3-5.4,4.5-10.2,4.5l0,0c-3.3,0-5.9-1-8-2.9
											c-2.1-1.9-3.1-4.4-3.1-7.5l0,0c0-3.4,1.3-6.1,4-8c2.6-1.9,6.1-2.8,10.5-2.8l0,0h6.9v-1.6c0-3.2-0.7-5.6-2-7.2
											c-1.4-1.6-3.6-2.4-6.8-2.4l0,0c-3.7,0-7,1-9.9,3l0,0v-4.6c2.7-1.6,6-2.5,10-2.5l0,0c8.7,0,13,4.6,13,13.7l0,0v22.4H225.4z
											 M244.5,167.7v5.2h-4.3v-49.5h4.3v19.3c2.6-3.9,6.2-5.9,10.9-5.9l0,0c4.5,0,8.1,1.7,11,5.2c2.8,3.5,4.3,8,4.3,13.5l0,0
											c0,5-1.3,9.2-4,12.7c-2.7,3.5-6.4,5.2-11.1,5.2l0,0C250.6,173.5,246.9,171.6,244.5,167.7L244.5,167.7z M244.5,155
											L244.5,155c0,5.2,1.1,8.9,3.3,11.1c2.2,2.2,4.8,3.3,7.8,3.3s5.5-1.3,7.5-3.9c2-2.6,3-5.9,3-9.9l0,0c0-4.7-1-8.3-3.1-10.9
											c-2.1-2.5-4.7-3.8-7.8-3.8l0,0c-1.1,0-2.3,0.2-3.4,0.7c-1.1,0.4-2.3,1.2-3.4,2.2c-1.1,1-2.1,2.5-2.8,4.4
											C244.8,150.1,244.5,152.4,244.5,155z M283.6,123.4v49.5h-4.3v-49.5H283.6z M320,166.8v4.3c-2.8,1.4-6.1,2.1-9.8,2.1l0,0
											c-5.3,0-9.6-1.6-12.8-4.9c-3.3-3.3-4.9-7.6-4.9-13l0,0c0-5.7,1.4-10.2,4.3-13.4c2.9-3.3,6.7-4.9,11.3-4.9l0,0
											c4.3,0,7.8,1.4,10.4,4.3c2.6,2.8,3.9,6.9,3.9,12l0,0c0,1.6-0.1,2.8-0.3,3.8l0,0h-25.1c0.3,3.9,1.7,6.9,4.1,9
											c2.4,2.1,5.5,3.1,9.5,3.1l0,0C314.4,169.2,317.6,168.4,320,166.8L320,166.8z M307.8,141L307.8,141c-3,0-5.5,1.1-7.5,3.2
											c-2,2.1-3.2,5.1-3.5,9l0,0h20.9v-1.6c0-3.2-0.9-5.8-2.7-7.7C313.3,141.9,310.9,141,307.8,141z M333.1,167.3
											c0.7,0.7,1,1.5,1,2.6c0,1-0.3,1.9-1,2.5c-0.7,0.7-1.5,1-2.6,1s-1.9-0.3-2.5-1c-0.7-0.7-1-1.5-1-2.5c0-1,0.3-1.9,1-2.6
											c0.7-0.7,1.5-1,2.5-1S332.4,166.7,333.1,167.3z M380.1,167.4v4.3c-2,1.4-4.6,2-7.8,2l0,0c-5.7,0-10.2-1.8-13.4-5.4
											c-3.2-3.6-4.8-8-4.8-13.1l0,0c0-4.9,1.6-9.3,4.9-13c3.3-3.7,7.7-5.5,13.3-5.5l0,0c2.9,0,5.5,0.6,7.8,1.9l0,0v4.3
											c-2.1-1.4-4.6-2.1-7.4-2.1l0,0c-4.3,0-7.8,1.4-10.4,4.2c-2.6,2.8-3.9,6.2-3.9,10.2l0,0c0,4,1.2,7.4,3.7,10.2
											c2.5,2.8,6,4.1,10.6,4.1l0,0C375.7,169.6,378.1,168.9,380.1,167.4L380.1,167.4z M393.6,153.1v19.8h-4.3v-35.5h4.3v6
											c2-4.3,5.3-6.4,9.9-6.4l0,0c0.3,0,0.9,0,1.8,0.1l0,0v4.3c-0.9-0.3-1.9-0.4-2.8-0.4l0,0c-2.5,0-4.6,1.2-6.3,3.7
											C394.4,147.3,393.6,150,393.6,153.1L393.6,153.1z M436.7,166.8v4.3c-2.8,1.4-6.1,2.1-9.8,2.1l0,0c-5.3,0-9.6-1.6-12.8-4.9
											c-3.3-3.3-4.9-7.6-4.9-13l0,0c0-5.7,1.4-10.2,4.3-13.4c2.9-3.3,6.7-4.9,11.3-4.9l0,0c4.3,0,7.8,1.4,10.4,4.3
											c2.6,2.8,3.9,6.9,3.9,12l0,0c0,1.6-0.1,2.8-0.3,3.8l0,0h-25.1c0.3,3.9,1.7,6.9,4.1,9c2.4,2.1,5.5,3.1,9.5,3.1l0,0
											C431.1,169.2,434.3,168.4,436.7,166.8L436.7,166.8z M424.6,141L424.6,141c-3,0-5.5,1.1-7.5,3.2s-3.2,5.1-3.5,9l0,0h20.9
											v-1.6c0-3.2-0.9-5.8-2.7-7.7C430,141.9,427.6,141,424.6,141z M457.9,169.3L457.9,169.3c2.8,0,5-0.8,6.7-2.3
											c1.7-1.5,2.5-3.5,2.5-5.9l0,0V156h-6.9c-3.3,0-5.8,0.6-7.4,1.9c-1.6,1.3-2.5,2.9-2.5,4.8l0,0c0,2,0.6,3.5,1.9,4.8
											C453.6,168.7,455.4,169.3,457.9,169.3z M467.2,172.9v-4.1c-2,3-5.4,4.5-10.2,4.5l0,0c-3.3,0-5.9-1-8-2.9
											c-2.1-1.9-3.1-4.4-3.1-7.5l0,0c0-3.4,1.3-6.1,3.9-8c2.6-1.9,6.1-2.8,10.5-2.8l0,0h6.9v-1.6c0-3.2-0.7-5.6-2-7.2
											c-1.4-1.6-3.6-2.4-6.8-2.4l0,0c-3.7,0-7,1-9.9,3l0,0v-4.6c2.7-1.6,6-2.5,10-2.5l0,0c8.7,0,13,4.6,13,13.7l0,0v22.4H467.2z
											 M498.7,167.6v4.3c-1.3,0.9-2.9,1.3-4.7,1.3l0,0c-6.7,0-10.1-3.5-10.1-10.4l0,0V141h-5.8v-3.6h5.8v-8.9h4.4v8.9h10.2v3.6
											h-10.2v22.1c0,4.1,1.9,6.1,5.7,6.1l0,0C495.8,169.2,497.4,168.7,498.7,167.6L498.7,167.6z M511.7,137.4v35.5h-4.3v-35.5
											H511.7z M511.7,123.9c0.6,0.6,0.9,1.3,0.9,2.1s-0.3,1.5-0.9,2.1c-0.6,0.6-1.3,0.8-2.1,0.8c-0.8,0-1.5-0.3-2.1-0.8
											c-0.6-0.6-0.8-1.3-0.8-2.1s0.3-1.6,0.8-2.1c0.6-0.6,1.3-0.9,2.1-0.9C510.4,123,511.1,123.3,511.7,123.9z M550,137.4
											l-12.6,35.5h-5.7l-12.3-35.5h4.5l5,14.9l5.7,17.2c0.5-1.7,2.4-7.4,5.8-17.2l0,0l5.2-14.9H550z M582.8,166.8v4.3
											c-2.8,1.4-6.1,2.1-9.8,2.1l0,0c-5.3,0-9.6-1.6-12.9-4.9c-3.3-3.3-4.9-7.6-4.9-13l0,0c0-5.7,1.4-10.2,4.3-13.4
											c2.9-3.3,6.7-4.9,11.3-4.9l0,0c4.3,0,7.8,1.4,10.4,4.3c2.6,2.8,3.9,6.9,3.9,12l0,0c0,1.6-0.1,2.8-0.3,3.8l0,0h-25.1
											c0.3,3.9,1.7,6.9,4.1,9c2.4,2.1,5.5,3.1,9.5,3.1l0,0C577.3,169.2,580.5,168.4,582.8,166.8L582.8,166.8z M570.7,141
											L570.7,141c-3,0-5.5,1.1-7.5,3.2s-3.2,5.1-3.5,9l0,0h20.9v-1.6c0-3.2-0.9-5.8-2.7-7.7C576.2,141.9,573.8,141,570.7,141z
											 M596,167.3c0.7,0.7,1,1.5,1,2.6c0,1-0.3,1.9-1,2.5c-0.7,0.7-1.5,1-2.5,1c-1,0-1.9-0.3-2.6-1c-0.7-0.7-1-1.5-1-2.5
											c0-1,0.3-1.9,1-2.6c0.7-0.7,1.5-1,2.6-1C594.4,166.3,595.3,166.7,596,167.3z M634.8,137.4v3.6h-8.1v31.9h-4.3V141h-6.5
											v-3.6h6.5v-3.8c0-3.2,0.8-5.8,2.5-7.7c1.7-1.9,4-2.9,7.1-2.9l0,0c0.9,0,1.8,0.1,2.9,0.4l0,0v4.2c-1-0.4-2-0.6-3.1-0.6l0,0
											c-1.4,0-2.6,0.5-3.6,1.6c-1,1.1-1.5,2.8-1.5,4.9l0,0v3.7H634.8z M652.2,169.3L652.2,169.3c2.8,0,5-0.8,6.7-2.3
											c1.7-1.5,2.5-3.5,2.5-5.9l0,0V156h-6.9c-3.3,0-5.8,0.6-7.4,1.9c-1.6,1.3-2.5,2.9-2.5,4.8l0,0c0,2,0.6,3.5,1.9,4.8
											C647.8,168.7,649.7,169.3,652.2,169.3z M661.4,172.9v-4.1c-2,3-5.4,4.5-10.2,4.5l0,0c-3.3,0-5.9-1-8-2.9
											c-2.1-1.9-3.1-4.4-3.1-7.5l0,0c0-3.4,1.3-6.1,4-8c2.6-1.9,6.1-2.8,10.5-2.8l0,0h6.9v-1.6c0-3.2-0.7-5.6-2-7.2
											c-1.4-1.6-3.6-2.4-6.8-2.4l0,0c-3.7,0-7,1-9.9,3l0,0v-4.6c2.7-1.6,6-2.5,10-2.5l0,0c8.7,0,13,4.6,13,13.7l0,0v22.4H661.4z
											 M696.6,163.8L696.6,163.8c0,2.9-1,5.3-3.1,7c-2,1.7-4.8,2.6-8.4,2.6l0,0c-4.3,0-7.8-0.7-10.4-2.1l0,0v-4.4
											c3.1,1.8,6.5,2.7,10.1,2.7l0,0c2.4,0,4.2-0.5,5.4-1.5c1.2-1,1.9-2.3,1.9-3.9l0,0c0-1.9-0.6-3.3-1.9-4.3
											c-1.3-1-3.4-2.1-6.3-3.3l0,0c-2.8-1.1-5.1-2.4-6.8-3.9c-1.7-1.5-2.5-3.5-2.5-6.2l0,0c0-2.8,1.1-5.1,3.2-6.8
											c2.1-1.7,4.7-2.5,7.9-2.5l0,0c3.8,0,6.8,0.5,8.8,1.6l0,0v4.3c-2.2-1.3-5.2-1.9-8.9-1.9l0,0c-2.1,0-3.7,0.5-4.9,1.4
											c-1.2,1-1.8,2.2-1.8,3.8l0,0c0,0.9,0.2,1.8,0.5,2.5c0.4,0.7,1,1.3,1.8,1.9c0.9,0.6,1.6,1,2.2,1.3c0.6,0.3,1.6,0.7,2.9,1.3
											l0,0c3.3,1.3,5.8,2.7,7.5,4.3C695.7,159,696.6,161.1,696.6,163.8z M721.3,167.6v4.3c-1.4,0.9-2.9,1.3-4.7,1.3l0,0
											c-6.7,0-10.1-3.5-10.1-10.4l0,0V141h-5.8v-3.6h5.8v-8.9h4.3v8.9h10.2v3.6h-10.2v22.1c0,4.1,1.9,6.1,5.7,6.1l0,0
											C718.4,169.2,720,168.7,721.3,167.6L721.3,167.6z M732,167.3c0.7,0.7,1,1.5,1,2.6c0,1-0.3,1.9-1,2.5c-0.7,0.7-1.5,1-2.6,1
											c-1,0-1.9-0.3-2.5-1c-0.7-0.7-1-1.5-1-2.5c0-1,0.3-1.9,1-2.6c0.7-0.7,1.5-1,2.5-1C730.5,166.3,731.4,166.7,732,167.3z"/>
									</g>
								</g>
							</g>
						</g>
					</g>
				</g>
			</g>
		</g>
		<rect x="10" y="0.8" class="st1" width="997.6" height="623.5"/>
	</g>
</g>
</svg>
